# xmcd
#
# Track frame offsets:
#	150
#	12556
#	22589
#	33887
#	43438
#	54141
#	71425
#	95709
#	109295
#	122280
#	144736
#	166922
#	182735
#	199510
#	214435
#	231369
#	244546
#	259318
#	276813
#
# Disc length: 3947 seconds
#
# Revision: 1
# Processed by: cddbd v1.5.1PL2 Copyright (c) Steve Scherf et al.
# Submitted via: audiograbber 1.83.01
#
DISCID=0d0f6913
DTITLE=Chanson Planet - (The Best Of French Music) CD2
DYEAR=1900
DGENRE=Chanson
TTITLE0=Richard Gotainner - Petit Gonzales
TTITLE1=Didier Barbelivien - Pour une amourette
TTITLE2=Marie Myriam - Le temos de l'amour
TTITLE3=Aliee Dona - Laisse tomber les Filles
TTITLE4=Didier Barbelivien - Meme si tu revenais
TTITLE5=Philippe Lavil - Ailleurs c'est touiours l'ideal
TTITLE6=Francois Feldman - Evadee du volcan
TTITLE7=Au Petit Bonheur - J'veux du soleil
TTITLE8=Gilbert Laffaiile - Tout m'ettone
TTITLE9=Nicoletta - J'attends, j apprends
TTITLE10=Marc Lavoine - Myriam
TTITLE11=Michel Fugain - Terra amata
TTITLE12=Johnny Hollyday - La peur
TTITLE13=Philippe Lafontain - Alexis m'attend
TTITLE14=Christophe Rippert - Reapprendre a s'aimer
TTITLE15=Alain Souchon - Le zebre
TTITLE16=Dany Brillant - Une Fille comme ca
TTITLE17=Marc Lavoine - Paris
TTITLE18=Nino Ferrer - Blues en fin du monde
EXTD=
EXTT0=
EXTT1=
EXTT2=
EXTT3=
EXTT4=
EXTT5=
EXTT6=
EXTT7=
EXTT8=
EXTT9=
EXTT10=
EXTT11=
EXTT12=
EXTT13=
EXTT14=
EXTT15=
EXTT16=
EXTT17=
EXTT18=
PLAYORDER=
